<svg xmlns="http://www.w3.org/2000/svg" viewBox="0 0 161.06 41.11"><defs><style>.cls-1{fill:#3C6DEA;}.cls-2,.cls-3,.cls-4{fill:#fff;}.cls-2{opacity:0.75;}.cls-3{opacity:0.5;}.cls-5{fill:#9299a3;}.cls-6{fill:#333;}</style></defs><title>atlas-primary-logo_4</title><g id="Layer_2" data-name="Layer 2"><g id="Layer_1-2" data-name="Layer 1"><circle class="cls-1" cx="20.56" cy="20.56" r="20.56"/><path id="Path_2606" data-name="Path 2606" class="cls-2" d="M18.87,5.94a3.06,3.06,0,0,0-1,4.21h0l11.32,19a3.07,3.07,0,0,0,4.24.91,2.93,2.93,0,0,0,1-4.05L23.07,7a3.06,3.06,0,0,0-4.2-1Z"/><path class="cls-3" d="M31.72,25h-22A2.94,2.94,0,0,0,6.66,27.8a2.93,2.93,0,0,0,3.08,2.76h22a2.91,2.91,0,0,0,3.07-2.76A2.93,2.93,0,0,0,31.72,25ZM9.33,29a1.5,1.5,0,1,1,1.49-1.5A1.5,1.5,0,0,1,9.33,29Z"/><path class="cls-4" d="M21.86,5.83h0A3,3,0,0,0,17.68,7h0l-11,19A3.06,3.06,0,0,0,12,29L23,10A3,3,0,0,0,21.86,5.83ZM9.33,29a1.5,1.5,0,1,1,1.49-1.5A1.5,1.5,0,0,1,9.33,29Z"/><path id="ART_2.0" data-name="ART 2.0" class="cls-5" d="M153.92,37.67h7.14v-7.1h-7.14Z"/><path id="ART_2.0-2" data-name="ART 2.0-2" class="cls-6" d="M70.27,37.67H78L66.15,5.41h-8.9L45.49,37.67h7.43l2.39-7.06H67.87ZM57.2,25l4.37-12.9h.09L66,25Zm19-5.17h4V31.33c0,4.37,2.35,6.8,7.65,6.8A18.72,18.72,0,0,0,92,37.67V32.92a9.51,9.51,0,0,1-1.6.13c-2.64,0-3.31-1.13-3.31-3.07V19.86H92V15.12H87.13V8H80.24v7.14h-4Zm26,17.81V5.41h-7V37.67Zm24,0v-15c0-5-3.31-8-10.08-8-5,0-8.06,1.73-9.74,5.25l5.21,2.6a4.1,4.1,0,0,1,4.16-2.81c2.26,0,3.57,1.26,3.57,3.15v1.34c-3.66.13-7,.34-9.37,1.14a5.83,5.83,0,0,0-4.33,5.92c0,4,2.86,6.89,7.31,6.89a7.34,7.34,0,0,0,6.6-3.57h.08l.17,3.11ZM115.44,33.3c-1.93,0-2.94-1.09-2.94-2.43,0-1.64,1.3-2.15,2.65-2.36s2.9-.33,4.2-.42v1.18a3.79,3.79,0,0,1-3.52,4C115.7,33.3,115.57,33.31,115.44,33.3Zm24.09,4.83c6.76,0,10.63-3.06,10.63-7.68s-4.2-6-8.36-6.85c-3.7-.71-5.21-1.05-5.21-2.44,0-.92,1-1.68,3-1.68a14.23,14.23,0,0,1,7.35,2.31l2.73-4.41a18.15,18.15,0,0,0-10-2.73c-6.84,0-9.87,3.36-9.87,7.27,0,4.45,3.7,6.13,8,7,3.7.72,5.58,1.05,5.58,2.52s-1.51,1.89-3.74,1.89a13.87,13.87,0,0,1-7.81-2.56l-3,4.45A19.07,19.07,0,0,0,139.53,38.13Z"/></g></g></svg>