<svg xmlns="http://www.w3.org/2000/svg" xmlns:xlink="http://www.w3.org/1999/xlink" width="200" zoomAndPan="magnify" viewBox="0 0 150 149.999998" height="200" preserveAspectRatio="xMidYMid meet" version="1.0"><defs><clipPath id="8d8a462fa2"><path d="M 3 0 L 144 0 L 144 150 L 3 150 Z M 3 0 " clip-rule="nonzero"/></clipPath><clipPath id="92add6cfc3"><path d="M 91.382812 -43.164062 L 192.625 43.917969 L 78.671875 176.402344 L -22.570312 89.320312 Z M 91.382812 -43.164062 " clip-rule="nonzero"/></clipPath><clipPath id="ab9c3cbb56"><path d="M 120.03125 128.320312 C 96.433594 155.75 56.035156 156.875 28.078125 132.828125 C 0.121094 108.785156 -4.808594 68.671875 18.789062 41.238281 C 49.21875 5.859375 142.003906 0.375 142.003906 0.375 C 142.003906 0.375 150.460938 92.941406 120.03125 128.320312 Z M 120.03125 128.320312 " clip-rule="nonzero"/></clipPath><clipPath id="d34d91b688"><path d="M 0 0.238281 L 141 0.238281 L 141 150 L 0 150 Z M 0 0.238281 " clip-rule="nonzero"/></clipPath><clipPath id="c9fc5f4807"><path d="M 88.382812 -43.164062 L 189.625 43.917969 L 75.671875 176.402344 L -25.570312 89.320312 Z M 88.382812 -43.164062 " clip-rule="nonzero"/></clipPath><clipPath id="94e489a458"><path d="M 117.03125 128.320312 C 93.433594 155.75 53.035156 156.875 25.078125 132.828125 C -2.878906 108.785156 -7.808594 68.671875 15.789062 41.238281 C 46.21875 5.859375 139.003906 0.375 139.003906 0.375 C 139.003906 0.375 147.460938 92.941406 117.03125 128.320312 Z M 117.03125 128.320312 " clip-rule="nonzero"/></clipPath><clipPath id="bd95453144"><rect x="0" width="141" y="0" height="150"/></clipPath><clipPath id="dd7d9806b0"><path d="M 97 6 L 140 6 L 140 50 L 97 50 Z M 97 6 " clip-rule="nonzero"/></clipPath><clipPath id="42708afc6a"><path d="M 92.394531 6.035156 L 140.027344 1.566406 L 144.589844 50.1875 L 96.957031 54.65625 Z M 92.394531 6.035156 " clip-rule="nonzero"/></clipPath><clipPath id="dff3d57947"><path d="M 92.394531 6.035156 L 140.027344 1.566406 L 144.679688 51.179688 L 97.050781 55.652344 Z M 92.394531 6.035156 " clip-rule="nonzero"/></clipPath><clipPath id="1c9cdc1492"><path d="M 92.394531 6.035156 L 140.027344 1.566406 L 145.613281 61.105469 L 97.984375 65.574219 Z M 92.394531 6.035156 " clip-rule="nonzero"/></clipPath><clipPath id="a473734fab"><path d="M 14.890625 27.101562 L 126.515625 27.101562 L 126.515625 138.730469 L 14.890625 138.730469 Z M 14.890625 27.101562 " clip-rule="nonzero"/></clipPath><clipPath id="386294e3e7"><rect x="0" width="150" y="0" height="150"/></clipPath></defs><g transform="matrix(1, 0, 0, 1, 0, -0.000000000000007527)"><g clip-path="url(#386294e3e7)"><g clip-path="url(#8d8a462fa2)"><g clip-path="url(#92add6cfc3)"><g clip-path="url(#ab9c3cbb56)"><g transform="matrix(1, 0, 0, 1, 3, -0.000000000000007522)"><g clip-path="url(#bd95453144)"><g clip-path="url(#d34d91b688)"><g clip-path="url(#c9fc5f4807)"><g clip-path="url(#94e489a458)"><path fill="#ffffff" d="M 88.382812 -43.164062 L 189.625 43.917969 L 75.671875 176.402344 L -25.570312 89.320312 Z M 88.382812 -43.164062 " fill-opacity="1" fill-rule="nonzero"/></g></g></g></g></g></g></g></g><g clip-path="url(#dd7d9806b0)"><g clip-path="url(#42708afc6a)"><g clip-path="url(#dff3d57947)"><g clip-path="url(#1c9cdc1492)"><path fill="#000000" d="M 139.671875 25.390625 L 122.136719 23.160156 L 116.679688 6.34375 C 116.648438 6.238281 116.542969 6.171875 116.433594 6.183594 C 116.324219 6.191406 116.234375 6.277344 116.222656 6.386719 L 113.992188 23.925781 L 97.175781 29.378906 C 97.070312 29.414062 97.003906 29.515625 97.011719 29.625 C 97.023438 29.738281 97.109375 29.824219 97.21875 29.839844 L 114.753906 32.070312 L 120.210938 48.886719 C 120.242188 48.992188 120.347656 49.058594 120.457031 49.050781 C 120.566406 49.039062 120.65625 48.953125 120.667969 48.84375 L 122.898438 31.304688 L 139.714844 25.851562 C 139.820312 25.816406 139.886719 25.714844 139.878906 25.605469 C 139.867188 25.492188 139.78125 25.40625 139.671875 25.390625 Z M 139.671875 25.390625 " fill-opacity="1" fill-rule="nonzero"/></g></g></g></g><g clip-path="url(#a473734fab)"><path fill="#3c6dea" d="M 126.515625 82.917969 C 126.515625 84.742188 126.425781 86.566406 126.246094 88.386719 C 126.066406 90.207031 125.800781 92.011719 125.441406 93.804688 C 125.085938 95.597656 124.640625 97.367188 124.113281 99.117188 C 123.582031 100.867188 122.964844 102.585938 122.265625 104.273438 C 121.566406 105.964844 120.785156 107.613281 119.925781 109.226562 C 119.0625 110.839844 118.125 112.402344 117.109375 113.925781 C 116.09375 115.445312 115.003906 116.910156 113.847656 118.324219 C 112.6875 119.738281 111.460938 121.089844 110.167969 122.382812 C 108.875 123.675781 107.523438 124.898438 106.109375 126.058594 C 104.695312 127.21875 103.230469 128.308594 101.710938 129.324219 C 100.191406 130.339844 98.625 131.277344 97.011719 132.136719 C 95.398438 133 93.75 133.78125 92.0625 134.480469 C 90.371094 135.179688 88.652344 135.796875 86.902344 136.324219 C 85.152344 136.855469 83.382812 137.300781 81.589844 137.65625 C 79.796875 138.011719 77.992188 138.28125 76.171875 138.460938 C 74.351562 138.640625 72.53125 138.730469 70.703125 138.730469 C 68.875 138.730469 67.050781 138.640625 65.230469 138.460938 C 63.414062 138.28125 61.605469 138.011719 59.8125 137.65625 C 58.019531 137.300781 56.25 136.855469 54.5 136.324219 C 52.75 135.796875 51.03125 135.179688 49.34375 134.480469 C 47.65625 133.78125 46.003906 133 44.390625 132.136719 C 42.78125 131.277344 41.214844 130.339844 39.695312 129.324219 C 38.175781 128.308594 36.707031 127.21875 35.292969 126.058594 C 33.882812 124.898438 32.527344 123.675781 31.234375 122.382812 C 29.945312 121.089844 28.71875 119.738281 27.558594 118.324219 C 26.398438 116.910156 25.3125 115.445312 24.296875 113.925781 C 23.28125 112.402344 22.339844 110.839844 21.480469 109.226562 C 20.617188 107.613281 19.835938 105.964844 19.136719 104.273438 C 18.4375 102.585938 17.824219 100.867188 17.292969 99.117188 C 16.761719 97.367188 16.316406 95.597656 15.960938 93.804688 C 15.605469 92.011719 15.335938 90.207031 15.15625 88.386719 C 14.980469 86.566406 14.890625 84.742188 14.890625 82.917969 C 14.890625 81.089844 14.980469 79.265625 15.15625 77.445312 C 15.335938 75.625 15.605469 73.820312 15.960938 72.027344 C 16.316406 70.234375 16.761719 68.464844 17.292969 66.714844 C 17.824219 64.964844 18.4375 63.246094 19.136719 61.558594 C 19.835938 59.867188 20.617188 58.21875 21.480469 56.605469 C 22.339844 54.992188 23.28125 53.429688 24.296875 51.90625 C 25.3125 50.386719 26.398438 48.921875 27.558594 47.507812 C 28.71875 46.097656 29.945312 44.742188 31.234375 43.449219 C 32.527344 42.15625 33.882812 40.933594 35.292969 39.773438 C 36.707031 38.613281 38.175781 37.523438 39.695312 36.507812 C 41.214844 35.492188 42.78125 34.554688 44.390625 33.695312 C 46.003906 32.832031 47.65625 32.050781 49.34375 31.351562 C 51.03125 30.652344 52.75 30.035156 54.5 29.507812 C 56.25 28.976562 58.019531 28.53125 59.8125 28.175781 C 61.605469 27.820312 63.414062 27.550781 65.230469 27.371094 C 67.050781 27.191406 68.875 27.101562 70.703125 27.101562 C 72.53125 27.101562 74.351562 27.191406 76.171875 27.371094 C 77.992188 27.550781 79.796875 27.820312 81.589844 28.175781 C 83.382812 28.53125 85.152344 28.976562 86.902344 29.507812 C 88.652344 30.035156 90.371094 30.652344 92.0625 31.351562 C 93.75 32.050781 95.398438 32.832031 97.011719 33.695312 C 98.625 34.554688 100.191406 35.492188 101.710938 36.507812 C 103.230469 37.523438 104.695312 38.613281 106.109375 39.773438 C 107.523438 40.933594 108.875 42.15625 110.167969 43.449219 C 111.460938 44.742188 112.6875 46.097656 113.847656 47.507812 C 115.003906 48.921875 116.09375 50.386719 117.109375 51.90625 C 118.125 53.429688 119.0625 54.992188 119.925781 56.605469 C 120.785156 58.21875 121.566406 59.867188 122.265625 61.558594 C 122.964844 63.246094 123.582031 64.964844 124.113281 66.714844 C 124.640625 68.464844 125.085938 70.234375 125.441406 72.027344 C 125.800781 73.820312 126.066406 75.625 126.246094 77.445312 C 126.425781 79.265625 126.515625 81.089844 126.515625 82.917969 Z M 126.515625 82.917969 " fill-opacity="1" fill-rule="nonzero"/></g><path fill="#ffffff" d="M 66.113281 43.226562 C 65.652344 43.515625 65.21875 43.84375 64.820312 44.214844 C 64.417969 44.585938 64.058594 44.992188 63.742188 45.433594 C 63.421875 45.875 63.148438 46.34375 62.921875 46.839844 C 62.695312 47.335938 62.515625 47.851562 62.390625 48.378906 C 62.265625 48.910156 62.191406 49.449219 62.171875 49.992188 C 62.152344 50.539062 62.183594 51.082031 62.269531 51.621094 C 62.359375 52.15625 62.496094 52.683594 62.6875 53.195312 C 62.875 53.707031 63.113281 54.191406 63.398438 54.65625 L 94.136719 106.234375 C 94.433594 106.695312 94.773438 107.117188 95.15625 107.511719 C 95.535156 107.902344 95.953125 108.253906 96.402344 108.5625 C 96.851562 108.871094 97.328125 109.136719 97.828125 109.351562 C 98.332031 109.566406 98.847656 109.734375 99.382812 109.847656 C 99.917969 109.960938 100.457031 110.023438 101.003906 110.03125 C 101.550781 110.042969 102.089844 109.996094 102.628906 109.898438 C 103.164062 109.800781 103.6875 109.652344 104.195312 109.449219 C 104.703125 109.25 105.1875 109 105.648438 108.707031 C 106.101562 108.4375 106.523438 108.125 106.914062 107.773438 C 107.304688 107.417969 107.65625 107.03125 107.96875 106.609375 C 108.285156 106.183594 108.554688 105.734375 108.777344 105.257812 C 109.003906 104.78125 109.175781 104.289062 109.304688 103.777344 C 109.429688 103.265625 109.503906 102.746094 109.527344 102.21875 C 109.550781 101.695312 109.523438 101.171875 109.441406 100.648438 C 109.359375 100.128906 109.230469 99.621094 109.046875 99.128906 C 108.867188 98.632812 108.636719 98.160156 108.363281 97.710938 L 77.515625 46.105469 C 77.230469 45.644531 76.902344 45.214844 76.53125 44.816406 C 76.160156 44.417969 75.753906 44.058594 75.3125 43.742188 C 74.871094 43.421875 74.402344 43.148438 73.910156 42.921875 C 73.414062 42.695312 72.902344 42.519531 72.375 42.394531 C 71.84375 42.269531 71.308594 42.195312 70.765625 42.175781 C 70.222656 42.152344 69.679688 42.1875 69.144531 42.273438 C 68.605469 42.359375 68.082031 42.496094 67.574219 42.683594 C 67.0625 42.871094 66.574219 43.109375 66.113281 43.390625 Z M 66.113281 43.226562 " fill-opacity="0.75" fill-rule="nonzero"/><path fill="#ffffff" d="M 100.996094 94.964844 L 41.277344 94.964844 C 40.753906 94.941406 40.234375 94.96875 39.71875 95.050781 C 39.199219 95.128906 38.695312 95.261719 38.207031 95.4375 C 37.714844 95.617188 37.246094 95.84375 36.800781 96.113281 C 36.351562 96.386719 35.9375 96.699219 35.550781 97.050781 C 35.164062 97.402344 34.816406 97.789062 34.507812 98.210938 C 34.199219 98.632812 33.933594 99.082031 33.710938 99.554688 C 33.492188 100.027344 33.316406 100.515625 33.191406 101.023438 C 33.066406 101.53125 32.992188 102.046875 32.96875 102.570312 C 32.996094 103.089844 33.078125 103.601562 33.207031 104.105469 C 33.339844 104.609375 33.515625 105.097656 33.742188 105.566406 C 33.96875 106.035156 34.238281 106.476562 34.550781 106.894531 C 34.863281 107.3125 35.214844 107.691406 35.601562 108.039062 C 35.988281 108.386719 36.40625 108.695312 36.855469 108.960938 C 37.304688 109.226562 37.773438 109.445312 38.265625 109.617188 C 38.757812 109.789062 39.257812 109.914062 39.773438 109.988281 C 40.289062 110.0625 40.808594 110.085938 41.328125 110.058594 L 101.050781 110.058594 C 101.570312 110.089844 102.089844 110.066406 102.605469 109.992188 C 103.121094 109.921875 103.625 109.796875 104.117188 109.625 C 104.605469 109.453125 105.078125 109.234375 105.523438 108.96875 C 105.972656 108.703125 106.390625 108.398438 106.777344 108.050781 C 107.167969 107.703125 107.515625 107.320312 107.828125 106.902344 C 108.140625 106.484375 108.410156 106.039062 108.632812 105.570312 C 108.855469 105.101562 109.03125 104.613281 109.160156 104.105469 C 109.289062 103.601562 109.363281 103.089844 109.390625 102.570312 C 109.367188 102.042969 109.292969 101.523438 109.167969 101.011719 C 109.042969 100.5 108.871094 100.003906 108.644531 99.527344 C 108.421875 99.050781 108.152344 98.601562 107.839844 98.175781 C 107.527344 97.753906 107.175781 97.363281 106.785156 97.011719 C 106.394531 96.65625 105.972656 96.34375 105.519531 96.074219 C 105.066406 95.804688 104.59375 95.582031 104.097656 95.40625 C 103.597656 95.230469 103.089844 95.105469 102.566406 95.03125 C 102.046875 94.957031 101.523438 94.933594 100.996094 94.964844 Z M 40.214844 105.820312 C 39.949219 105.824219 39.683594 105.800781 39.417969 105.75 C 39.15625 105.699219 38.902344 105.621094 38.652344 105.523438 C 38.40625 105.421875 38.167969 105.296875 37.945312 105.148438 C 37.722656 105 37.515625 104.832031 37.324219 104.644531 C 37.136719 104.457031 36.964844 104.253906 36.816406 104.03125 C 36.664062 103.808594 36.539062 103.574219 36.433594 103.328125 C 36.332031 103.082031 36.253906 102.828125 36.199219 102.5625 C 36.144531 102.300781 36.117188 102.035156 36.117188 101.769531 C 36.117188 101.5 36.140625 101.234375 36.191406 100.972656 C 36.242188 100.710938 36.320312 100.457031 36.421875 100.207031 C 36.523438 99.960938 36.648438 99.722656 36.792969 99.5 C 36.941406 99.277344 37.109375 99.070312 37.300781 98.882812 C 37.488281 98.691406 37.695312 98.523438 37.914062 98.371094 C 38.136719 98.222656 38.371094 98.097656 38.621094 97.992188 C 38.867188 97.890625 39.121094 97.8125 39.382812 97.761719 C 39.644531 97.707031 39.910156 97.679688 40.179688 97.679688 C 40.445312 97.679688 40.710938 97.703125 40.972656 97.757812 C 41.238281 97.808594 41.492188 97.886719 41.738281 97.988281 C 41.988281 98.089844 42.222656 98.214844 42.445312 98.363281 C 42.667969 98.511719 42.875 98.679688 43.0625 98.867188 C 43.253906 99.058594 43.421875 99.261719 43.570312 99.484375 C 43.71875 99.707031 43.847656 99.941406 43.949219 100.191406 C 44.050781 100.4375 44.128906 100.691406 44.179688 100.957031 C 44.234375 101.21875 44.257812 101.484375 44.257812 101.75 C 44.257812 102.015625 44.234375 102.28125 44.183594 102.542969 C 44.128906 102.800781 44.054688 103.054688 43.953125 103.300781 C 43.851562 103.546875 43.726562 103.78125 43.578125 104.003906 C 43.429688 104.226562 43.265625 104.429688 43.078125 104.621094 C 42.890625 104.808594 42.683594 104.976562 42.464844 105.125 C 42.242188 105.273438 42.011719 105.402344 41.765625 105.503906 C 41.519531 105.605469 41.265625 105.6875 41.003906 105.738281 C 40.746094 105.792969 40.480469 105.820312 40.214844 105.820312 Z M 40.214844 105.820312 " fill-opacity="0.5" fill-rule="nonzero"/><path fill="#ffffff" d="M 74.230469 42.929688 C 73.757812 42.648438 73.257812 42.417969 72.738281 42.238281 C 72.21875 42.058594 71.6875 41.929688 71.140625 41.859375 C 70.59375 41.785156 70.046875 41.769531 69.496094 41.808594 C 68.945312 41.847656 68.40625 41.941406 67.875 42.089844 C 67.347656 42.238281 66.835938 42.4375 66.347656 42.691406 C 65.855469 42.941406 65.398438 43.242188 64.96875 43.585938 C 64.539062 43.929688 64.148438 44.316406 63.796875 44.742188 C 63.445312 45.164062 63.140625 45.621094 62.882812 46.105469 L 33.023438 97.683594 C 32.796875 98.15625 32.617188 98.644531 32.480469 99.148438 C 32.347656 99.652344 32.261719 100.167969 32.222656 100.6875 C 32.1875 101.210938 32.199219 101.730469 32.257812 102.25 C 32.320312 102.769531 32.425781 103.277344 32.585938 103.777344 C 32.742188 104.273438 32.941406 104.753906 33.191406 105.214844 C 33.4375 105.675781 33.726562 106.109375 34.054688 106.515625 C 34.382812 106.921875 34.746094 107.292969 35.148438 107.628906 C 35.546875 107.96875 35.972656 108.265625 36.429688 108.519531 C 36.882812 108.777344 37.359375 108.988281 37.855469 109.15625 C 38.351562 109.324219 38.855469 109.441406 39.375 109.515625 C 39.890625 109.585938 40.410156 109.609375 40.933594 109.582031 C 41.457031 109.554688 41.96875 109.480469 42.476562 109.355469 C 42.984375 109.230469 43.476562 109.0625 43.953125 108.84375 C 44.429688 108.628906 44.878906 108.367188 45.308594 108.066406 C 45.734375 107.765625 46.128906 107.425781 46.492188 107.050781 C 46.855469 106.671875 47.179688 106.265625 47.464844 105.828125 L 77.324219 54.257812 C 77.605469 53.785156 77.835938 53.292969 78.019531 52.773438 C 78.199219 52.257812 78.328125 51.726562 78.402344 51.183594 C 78.476562 50.640625 78.496094 50.097656 78.460938 49.550781 C 78.421875 49 78.332031 48.464844 78.1875 47.933594 C 78.042969 47.40625 77.847656 46.898438 77.601562 46.40625 C 77.355469 45.917969 77.058594 45.457031 76.71875 45.027344 C 76.378906 44.597656 76 44.207031 75.582031 43.855469 C 75.160156 43.5 74.710938 43.191406 74.230469 42.929688 Z M 40.21875 105.828125 C 39.949219 105.832031 39.683594 105.804688 39.421875 105.753906 C 39.15625 105.703125 38.902344 105.628906 38.65625 105.527344 C 38.40625 105.425781 38.171875 105.304688 37.949219 105.15625 C 37.722656 105.007812 37.515625 104.839844 37.328125 104.652344 C 37.136719 104.464844 36.964844 104.257812 36.816406 104.039062 C 36.667969 103.816406 36.539062 103.582031 36.4375 103.335938 C 36.332031 103.085938 36.253906 102.832031 36.199219 102.570312 C 36.148438 102.308594 36.121094 102.042969 36.117188 101.777344 C 36.117188 101.507812 36.140625 101.242188 36.195312 100.980469 C 36.246094 100.71875 36.320312 100.460938 36.421875 100.214844 C 36.523438 99.964844 36.648438 99.730469 36.796875 99.507812 C 36.945312 99.285156 37.113281 99.078125 37.300781 98.886719 C 37.488281 98.699219 37.695312 98.527344 37.917969 98.378906 C 38.140625 98.230469 38.375 98.105469 38.621094 98 C 38.867188 97.898438 39.121094 97.820312 39.386719 97.765625 C 39.648438 97.714844 39.914062 97.6875 40.179688 97.6875 C 40.449219 97.6875 40.714844 97.710938 40.976562 97.761719 C 41.238281 97.816406 41.492188 97.890625 41.742188 97.992188 C 41.988281 98.09375 42.222656 98.222656 42.445312 98.371094 C 42.667969 98.519531 42.875 98.6875 43.066406 98.875 C 43.253906 99.066406 43.425781 99.269531 43.574219 99.492188 C 43.722656 99.714844 43.847656 99.949219 43.949219 100.199219 C 44.050781 100.445312 44.128906 100.699219 44.183594 100.960938 C 44.234375 101.226562 44.261719 101.488281 44.261719 101.757812 C 44.261719 102.023438 44.234375 102.289062 44.183594 102.546875 C 44.132812 102.808594 44.054688 103.0625 43.953125 103.308594 C 43.851562 103.554688 43.726562 103.789062 43.582031 104.011719 C 43.433594 104.234375 43.265625 104.4375 43.078125 104.625 C 42.890625 104.816406 42.6875 104.984375 42.464844 105.132812 C 42.246094 105.28125 42.011719 105.40625 41.765625 105.511719 C 41.519531 105.613281 41.269531 105.691406 41.007812 105.746094 C 40.746094 105.800781 40.484375 105.828125 40.21875 105.828125 Z M 40.21875 105.828125 " fill-opacity="1" fill-rule="nonzero"/></g></g></svg>