<svg xmlns="http://www.w3.org/2000/svg" xmlns:xlink="http://www.w3.org/1999/xlink" version="1.1" x="0px" y="0px" viewBox="0 0 100 125" enable-background="new 0 0 100 100" xml:space="preserve"><path d="M94.614,49.516l-36.063-8.068L50.482,5.386C50.432,5.16,50.231,5,50,5c-0.231,0-0.432,0.16-0.482,0.386l-8.068,36.062  L5.386,49.516C5.161,49.567,5,49.767,5,49.999s0.161,0.432,0.386,0.483l36.063,8.069l8.068,36.063C49.567,94.84,49.768,95,50,95  c0.231,0,0.432-0.16,0.482-0.386l8.069-36.063l36.063-8.069C94.839,50.431,95,50.231,95,49.999S94.839,49.567,94.614,49.516z"/><text x="0" y="115" fill="#000000" font-size="5px" font-weight="bold" font-family="'Helvetica Neue', Helvetica, Arial-Unicode, Arial, Sans-serif">Created by Natalia</text><text x="0" y="120" fill="#000000" font-size="5px" font-weight="bold" font-family="'Helvetica Neue', Helvetica, Arial-Unicode, Arial, Sans-serif">from the Noun Project</text></svg>